<mxfile modified="2022-04-29T13:48:02.901Z" host="app.diagrams.net" agent="5.0 (Windows NT 10.0; Win64; x64) AppleWebKit/537.36 (KHTML, like Gecko) Chrome/100.0.4896.127 Safari/537.36" etag="7Va5M5SJ0jB7Q9pwllP0" version="17.5.0" type="github">
  <diagram id="Ht1M8jgEwFfnCIfOTk4-" name="Page-1">
    <mxGraphModel dx="1468" dy="860" grid="1" gridSize="10" guides="1" tooltips="1" connect="1" arrows="1" fold="1" page="1" pageScale="1" pageWidth="1169" pageHeight="827" math="0" shadow="0">
      <root>
        <mxCell id="0" />
        <mxCell id="1" parent="0" />
        <mxCell id="yKBV6GdeEkua27Xqf-sd-9" value="" style="endArrow=classic;startArrow=classic;html=1;rounded=0;strokeColor=#808080;strokeWidth=2;" parent="1" edge="1" target="UEzPUAAOIrF-is8g5C7q-114">
          <mxGeometry width="50" height="50" relative="1" as="geometry">
            <mxPoint x="440" y="400" as="sourcePoint" />
            <mxPoint x="550" y="400" as="targetPoint" />
          </mxGeometry>
        </mxCell>
        <mxCell id="yKBV6GdeEkua27Xqf-sd-10" value="CloudFront" style="text;html=1;resizable=0;autosize=1;align=center;verticalAlign=middle;points=[];fillColor=none;strokeColor=none;rounded=0;" parent="1" vertex="1">
          <mxGeometry x="360" y="451" width="70" height="20" as="geometry" />
        </mxCell>
        <mxCell id="yKBV6GdeEkua27Xqf-sd-11" value="" style="sketch=0;outlineConnect=0;fontColor=#232F3E;gradientColor=none;fillColor=#232F3D;strokeColor=none;dashed=0;verticalLabelPosition=bottom;verticalAlign=top;align=center;html=1;fontSize=12;fontStyle=0;aspect=fixed;pointerEvents=1;shape=mxgraph.aws4.users;" parent="1" vertex="1">
          <mxGeometry x="200" y="560" width="78" height="78" as="geometry" />
        </mxCell>
        <mxCell id="yKBV6GdeEkua27Xqf-sd-14" value="" style="edgeStyle=orthogonalEdgeStyle;rounded=0;orthogonalLoop=1;jettySize=auto;html=1;strokeColor=#808080;strokeWidth=2;" parent="1" source="yKBV6GdeEkua27Xqf-sd-12" target="yKBV6GdeEkua27Xqf-sd-11" edge="1">
          <mxGeometry relative="1" as="geometry" />
        </mxCell>
        <mxCell id="yKBV6GdeEkua27Xqf-sd-12" value="Web&amp;nbsp; &amp;nbsp; &amp;nbsp; &amp;nbsp; &amp;nbsp;&amp;nbsp;" style="sketch=0;outlineConnect=0;gradientColor=none;fontColor=#545B64;strokeColor=none;fillColor=#879196;dashed=0;verticalLabelPosition=bottom;verticalAlign=top;align=center;html=1;fontSize=12;fontStyle=0;aspect=fixed;shape=mxgraph.aws4.illustration_desktop;pointerEvents=1" parent="1" vertex="1">
          <mxGeometry x="189" y="356" width="100" height="91" as="geometry" />
        </mxCell>
        <mxCell id="yKBV6GdeEkua27Xqf-sd-13" value="" style="edgeStyle=orthogonalEdgeStyle;html=1;endArrow=block;elbow=vertical;startArrow=block;startFill=1;endFill=1;strokeColor=#808080;rounded=0;entryX=0;entryY=0.5;entryDx=0;entryDy=0;entryPerimeter=0;strokeWidth=2;" parent="1" source="yKBV6GdeEkua27Xqf-sd-12" target="yKBV6GdeEkua27Xqf-sd-7" edge="1">
          <mxGeometry width="100" relative="1" as="geometry">
            <mxPoint x="480" y="410" as="sourcePoint" />
            <mxPoint x="580" y="410" as="targetPoint" />
          </mxGeometry>
        </mxCell>
        <mxCell id="yKBV6GdeEkua27Xqf-sd-15" value="Users" style="text;html=1;resizable=0;autosize=1;align=center;verticalAlign=middle;points=[];fillColor=none;strokeColor=none;rounded=0;" parent="1" vertex="1">
          <mxGeometry x="214" y="645.5" width="50" height="20" as="geometry" />
        </mxCell>
        <mxCell id="yKBV6GdeEkua27Xqf-sd-16" value="AWS Cloud" style="points=[[0,0],[0.25,0],[0.5,0],[0.75,0],[1,0],[1,0.25],[1,0.5],[1,0.75],[1,1],[0.75,1],[0.5,1],[0.25,1],[0,1],[0,0.75],[0,0.5],[0,0.25]];outlineConnect=0;gradientColor=none;html=1;whiteSpace=wrap;fontSize=12;fontStyle=0;container=1;pointerEvents=0;collapsible=0;recursiveResize=0;shape=mxgraph.aws4.group;grIcon=mxgraph.aws4.group_aws_cloud_alt;strokeColor=#232F3E;fillColor=none;verticalAlign=top;align=left;spacingLeft=30;fontColor=#232F3E;dashed=0;" parent="1" vertex="1">
          <mxGeometry x="320" y="130" width="720" height="650" as="geometry" />
        </mxCell>
        <mxCell id="UEzPUAAOIrF-is8g5C7q-115" value="Lambda&lt;br&gt;function" style="outlineConnect=0;fontColor=#232F3E;gradientColor=none;fillColor=#D05C17;strokeColor=none;dashed=0;verticalLabelPosition=bottom;verticalAlign=top;align=center;html=1;fontSize=12;fontStyle=0;aspect=fixed;pointerEvents=1;shape=mxgraph.aws4.lambda_function;labelBackgroundColor=#ffffff;" parent="yKBV6GdeEkua27Xqf-sd-16" vertex="1">
          <mxGeometry x="340" y="227.75" width="78" height="78" as="geometry" />
        </mxCell>
        <mxCell id="UEzPUAAOIrF-is8g5C7q-116" value="Amazon S3" style="outlineConnect=0;fontColor=#232F3E;gradientColor=#60A337;gradientDirection=north;fillColor=#277116;strokeColor=#ffffff;dashed=0;verticalLabelPosition=bottom;verticalAlign=top;align=center;html=1;fontSize=12;fontStyle=0;aspect=fixed;shape=mxgraph.aws4.resourceIcon;resIcon=mxgraph.aws4.s3;labelBackgroundColor=#ffffff;" parent="yKBV6GdeEkua27Xqf-sd-16" vertex="1">
          <mxGeometry x="320.0000000000002" y="50" width="78" height="78" as="geometry" />
        </mxCell>
        <mxCell id="UEzPUAAOIrF-is8g5C7q-132" style="edgeStyle=orthogonalEdgeStyle;rounded=0;orthogonalLoop=1;jettySize=auto;html=1;startArrow=open;startFill=0;endArrow=open;endFill=0;strokeWidth=2;strokeColor=#808080;" parent="yKBV6GdeEkua27Xqf-sd-16" source="UEzPUAAOIrF-is8g5C7q-115" target="tf3GBWeRUYOul-Jmk8GR-6" edge="1">
          <mxGeometry relative="1" as="geometry">
            <Array as="points">
              <mxPoint x="470" y="262" />
              <mxPoint x="470" y="130" />
            </Array>
            <mxPoint x="570" y="139.75" as="targetPoint" />
          </mxGeometry>
        </mxCell>
        <mxCell id="UEzPUAAOIrF-is8g5C7q-134" style="edgeStyle=orthogonalEdgeStyle;rounded=0;orthogonalLoop=1;jettySize=auto;html=1;startArrow=open;startFill=0;endArrow=open;endFill=0;strokeWidth=2;strokeColor=#808080;" parent="yKBV6GdeEkua27Xqf-sd-16" source="UEzPUAAOIrF-is8g5C7q-115" target="UEzPUAAOIrF-is8g5C7q-123" edge="1">
          <mxGeometry relative="1" as="geometry">
            <Array as="points">
              <mxPoint x="510" y="282" />
              <mxPoint x="510" y="219" />
            </Array>
            <mxPoint x="598.3333333333335" y="139.75" as="targetPoint" />
          </mxGeometry>
        </mxCell>
        <mxCell id="UEzPUAAOIrF-is8g5C7q-135" style="edgeStyle=orthogonalEdgeStyle;rounded=0;orthogonalLoop=1;jettySize=auto;html=1;startArrow=open;startFill=0;endArrow=open;endFill=0;strokeWidth=2;strokeColor=#808080;" parent="yKBV6GdeEkua27Xqf-sd-16" source="UEzPUAAOIrF-is8g5C7q-115" target="tf3GBWeRUYOul-Jmk8GR-5" edge="1">
          <mxGeometry relative="1" as="geometry">
            <Array as="points">
              <mxPoint x="481" y="292" />
              <mxPoint x="481" y="340" />
            </Array>
            <mxPoint x="560.0360095264341" y="420" as="targetPoint" />
          </mxGeometry>
        </mxCell>
        <mxCell id="UEzPUAAOIrF-is8g5C7q-123" value="Amazon&lt;br&gt;CloudWatch Logs&lt;br&gt;" style="outlineConnect=0;fontColor=#232F3E;gradientColor=none;gradientDirection=north;fillColor=#F34482;strokeColor=none;dashed=0;verticalLabelPosition=bottom;verticalAlign=top;align=center;html=1;fontSize=12;fontStyle=0;aspect=fixed;shape=mxgraph.aws4.cloudwatch;labelBackgroundColor=#ffffff;" parent="yKBV6GdeEkua27Xqf-sd-16" vertex="1">
          <mxGeometry x="563.2500000000002" y="180" width="78" height="78" as="geometry" />
        </mxCell>
        <mxCell id="UEzPUAAOIrF-is8g5C7q-136" style="edgeStyle=orthogonalEdgeStyle;rounded=0;orthogonalLoop=1;jettySize=auto;html=1;startArrow=open;startFill=0;endArrow=open;endFill=0;strokeWidth=2;strokeColor=#808080;entryX=0.5;entryY=0;entryDx=0;entryDy=0;entryPerimeter=0;" parent="yKBV6GdeEkua27Xqf-sd-16" source="UEzPUAAOIrF-is8g5C7q-115" target="tf3GBWeRUYOul-Jmk8GR-9" edge="1">
          <mxGeometry relative="1" as="geometry">
            <Array as="points">
              <mxPoint x="460" y="302" />
              <mxPoint x="460" y="380" />
              <mxPoint x="265" y="380" />
            </Array>
          </mxGeometry>
        </mxCell>
        <mxCell id="UEzPUAAOIrF-is8g5C7q-114" value="Amazon API&lt;br&gt;Gateway&lt;br&gt;" style="outlineConnect=0;fontColor=#232F3E;gradientColor=#945DF2;gradientDirection=north;fillColor=#5A30B5;strokeColor=#ffffff;dashed=0;verticalLabelPosition=bottom;verticalAlign=top;align=center;html=1;fontSize=12;fontStyle=0;aspect=fixed;shape=mxgraph.aws4.resourceIcon;resIcon=mxgraph.aws4.api_gateway;labelBackgroundColor=#ffffff;" parent="yKBV6GdeEkua27Xqf-sd-16" vertex="1">
          <mxGeometry x="180" y="232.25" width="78" height="78" as="geometry" />
        </mxCell>
        <mxCell id="UEzPUAAOIrF-is8g5C7q-129" style="edgeStyle=orthogonalEdgeStyle;rounded=0;orthogonalLoop=1;jettySize=auto;html=1;startArrow=open;startFill=0;endArrow=open;endFill=0;strokeWidth=2;strokeColor=#808080;" parent="yKBV6GdeEkua27Xqf-sd-16" source="UEzPUAAOIrF-is8g5C7q-114" target="UEzPUAAOIrF-is8g5C7q-115" edge="1">
          <mxGeometry relative="1" as="geometry">
            <Array as="points">
              <mxPoint x="380.5" y="297" />
              <mxPoint x="380.5" y="297" />
            </Array>
          </mxGeometry>
        </mxCell>
        <mxCell id="UEzPUAAOIrF-is8g5C7q-142" style="edgeStyle=orthogonalEdgeStyle;rounded=0;orthogonalLoop=1;jettySize=auto;html=1;startArrow=open;startFill=0;endArrow=open;endFill=0;strokeWidth=2;strokeColor=#808080;" parent="yKBV6GdeEkua27Xqf-sd-16" source="UEzPUAAOIrF-is8g5C7q-114" target="UEzPUAAOIrF-is8g5C7q-115" edge="1">
          <mxGeometry relative="1" as="geometry">
            <mxPoint x="327.5" y="292" as="sourcePoint" />
            <mxPoint x="460.5" y="292" as="targetPoint" />
            <Array as="points">
              <mxPoint x="380.5" y="277" />
              <mxPoint x="380.5" y="277" />
            </Array>
          </mxGeometry>
        </mxCell>
        <mxCell id="tf3GBWeRUYOul-Jmk8GR-2" value="" style="sketch=0;points=[[0,0,0],[0.25,0,0],[0.5,0,0],[0.75,0,0],[1,0,0],[0,1,0],[0.25,1,0],[0.5,1,0],[0.75,1,0],[1,1,0],[0,0.25,0],[0,0.5,0],[0,0.75,0],[1,0.25,0],[1,0.5,0],[1,0.75,0]];outlineConnect=0;fontColor=#232F3E;gradientColor=#F78E04;gradientDirection=north;fillColor=#D05C17;strokeColor=#ffffff;dashed=0;verticalLabelPosition=bottom;verticalAlign=top;align=center;html=1;fontSize=12;fontStyle=0;aspect=fixed;shape=mxgraph.aws4.resourceIcon;resIcon=mxgraph.aws4.ec2;" vertex="1" parent="yKBV6GdeEkua27Xqf-sd-16">
          <mxGeometry x="398" y="519.75" width="79.75" height="79.75" as="geometry" />
        </mxCell>
        <mxCell id="tf3GBWeRUYOul-Jmk8GR-3" value="AWS EC2&lt;br&gt;" style="text;html=1;resizable=0;autosize=1;align=center;verticalAlign=middle;points=[];fillColor=none;strokeColor=none;rounded=0;" vertex="1" parent="yKBV6GdeEkua27Xqf-sd-16">
          <mxGeometry x="398" y="490.12" width="70" height="20" as="geometry" />
        </mxCell>
        <mxCell id="yKBV6GdeEkua27Xqf-sd-7" value="" style="outlineConnect=0;dashed=0;verticalLabelPosition=bottom;verticalAlign=top;align=center;html=1;shape=mxgraph.aws3.cloudfront;fillColor=#F58536;gradientColor=none;" parent="yKBV6GdeEkua27Xqf-sd-16" vertex="1">
          <mxGeometry x="40" y="225" width="76.5" height="93" as="geometry" />
        </mxCell>
        <mxCell id="yKBV6GdeEkua27Xqf-sd-8" value="" style="endArrow=classic;html=1;rounded=0;entryX=0.5;entryY=0;entryDx=0;entryDy=0;entryPerimeter=0;strokeColor=#808080;strokeWidth=2;" parent="yKBV6GdeEkua27Xqf-sd-16" target="yKBV6GdeEkua27Xqf-sd-7" edge="1" source="UEzPUAAOIrF-is8g5C7q-116">
          <mxGeometry width="50" height="50" relative="1" as="geometry">
            <mxPoint x="540" y="-63" as="sourcePoint" />
            <mxPoint x="60" y="260" as="targetPoint" />
            <Array as="points">
              <mxPoint x="78" y="90" />
            </Array>
          </mxGeometry>
        </mxCell>
        <mxCell id="tf3GBWeRUYOul-Jmk8GR-5" value="Amazon&lt;br&gt;CloudWatch&lt;br&gt;" style="outlineConnect=0;fontColor=#232F3E;gradientColor=#F34482;gradientDirection=north;fillColor=#BC1356;strokeColor=#ffffff;dashed=0;verticalLabelPosition=bottom;verticalAlign=top;align=center;html=1;fontSize=12;fontStyle=0;aspect=fixed;shape=mxgraph.aws4.resourceIcon;resIcon=mxgraph.aws4.cloudwatch;labelBackgroundColor=#ffffff;" vertex="1" parent="yKBV6GdeEkua27Xqf-sd-16">
          <mxGeometry x="563.2500000000002" y="310.25" width="78" height="78" as="geometry" />
        </mxCell>
        <mxCell id="tf3GBWeRUYOul-Jmk8GR-6" value="IAM Roles" style="outlineConnect=0;fontColor=#232F3E;gradientColor=none;fillColor=#C7131F;strokeColor=none;dashed=0;verticalLabelPosition=bottom;verticalAlign=top;align=center;html=1;fontSize=12;fontStyle=0;aspect=fixed;pointerEvents=1;shape=mxgraph.aws4.role;labelBackgroundColor=#ffffff;" vertex="1" parent="yKBV6GdeEkua27Xqf-sd-16">
          <mxGeometry x="563.2500000000002" y="100" width="78" height="44" as="geometry" />
        </mxCell>
        <mxCell id="tf3GBWeRUYOul-Jmk8GR-4" style="edgeStyle=orthogonalEdgeStyle;rounded=0;orthogonalLoop=1;jettySize=auto;html=1;startArrow=open;startFill=0;endArrow=open;endFill=0;strokeWidth=2;strokeColor=#808080;exitX=1;exitY=0.75;exitDx=0;exitDy=0;exitPerimeter=0;" edge="1" parent="yKBV6GdeEkua27Xqf-sd-16" source="tf3GBWeRUYOul-Jmk8GR-2" target="tf3GBWeRUYOul-Jmk8GR-5">
          <mxGeometry relative="1" as="geometry">
            <Array as="points">
              <mxPoint x="580" y="580" />
              <mxPoint x="580" y="500" />
              <mxPoint x="670" y="500" />
              <mxPoint x="670" y="349" />
            </Array>
            <mxPoint x="427.999112850026" y="292" as="sourcePoint" />
            <mxPoint x="640" y="270" as="targetPoint" />
          </mxGeometry>
        </mxCell>
        <mxCell id="tf3GBWeRUYOul-Jmk8GR-9" value="" style="sketch=0;points=[[0,0,0],[0.25,0,0],[0.5,0,0],[0.75,0,0],[1,0,0],[0,1,0],[0.25,1,0],[0.5,1,0],[0.75,1,0],[1,1,0],[0,0.25,0],[0,0.5,0],[0,0.75,0],[1,0.25,0],[1,0.5,0],[1,0.75,0]];outlineConnect=0;fontColor=#232F3E;gradientColor=#F78E04;gradientDirection=north;fillColor=#D05C17;strokeColor=#ffffff;dashed=0;verticalLabelPosition=bottom;verticalAlign=top;align=center;html=1;fontSize=12;fontStyle=0;aspect=fixed;shape=mxgraph.aws4.resourceIcon;resIcon=mxgraph.aws4.elastic_load_balancing;" vertex="1" parent="yKBV6GdeEkua27Xqf-sd-16">
          <mxGeometry x="226" y="441.75" width="78" height="78" as="geometry" />
        </mxCell>
        <mxCell id="tf3GBWeRUYOul-Jmk8GR-10" value="&lt;div&gt;&lt;br&gt;&lt;/div&gt;&lt;div&gt;Elastic Load Balancing&lt;/div&gt;&lt;div&gt;&lt;br&gt;&lt;/div&gt;" style="text;html=1;resizable=0;autosize=1;align=center;verticalAlign=middle;points=[];fillColor=none;strokeColor=none;rounded=0;" vertex="1" parent="yKBV6GdeEkua27Xqf-sd-16">
          <mxGeometry x="200" y="510" width="140" height="50" as="geometry" />
        </mxCell>
        <mxCell id="tf3GBWeRUYOul-Jmk8GR-11" value="" style="sketch=0;points=[[0,0,0],[0.25,0,0],[0.5,0,0],[0.75,0,0],[1,0,0],[0,1,0],[0.25,1,0],[0.5,1,0],[0.75,1,0],[1,1,0],[0,0.25,0],[0,0.5,0],[0,0.75,0],[1,0.25,0],[1,0.5,0],[1,0.75,0]];outlineConnect=0;fontColor=#232F3E;gradientColor=#F78E04;gradientDirection=north;fillColor=#D05C17;strokeColor=#ffffff;dashed=0;verticalLabelPosition=bottom;verticalAlign=top;align=center;html=1;fontSize=12;fontStyle=0;aspect=fixed;shape=mxgraph.aws4.resourceIcon;resIcon=mxgraph.aws4.ec2;" vertex="1" parent="yKBV6GdeEkua27Xqf-sd-16">
          <mxGeometry x="400" y="400" width="79.75" height="79.75" as="geometry" />
        </mxCell>
        <mxCell id="tf3GBWeRUYOul-Jmk8GR-13" value="AWS EC2&lt;br&gt;" style="text;html=1;resizable=0;autosize=1;align=center;verticalAlign=middle;points=[];fillColor=none;strokeColor=none;rounded=0;" vertex="1" parent="yKBV6GdeEkua27Xqf-sd-16">
          <mxGeometry x="407.75" y="610" width="70" height="20" as="geometry" />
        </mxCell>
        <mxCell id="tf3GBWeRUYOul-Jmk8GR-14" value="" style="endArrow=classic;startArrow=classic;html=1;rounded=0;strokeColor=#808080;strokeWidth=2;entryX=0;entryY=0.5;entryDx=0;entryDy=0;entryPerimeter=0;exitX=1;exitY=0.5;exitDx=0;exitDy=0;exitPerimeter=0;" edge="1" parent="yKBV6GdeEkua27Xqf-sd-16" source="tf3GBWeRUYOul-Jmk8GR-9" target="tf3GBWeRUYOul-Jmk8GR-11">
          <mxGeometry width="50" height="50" relative="1" as="geometry">
            <mxPoint x="220" y="450" as="sourcePoint" />
            <mxPoint x="270" y="400" as="targetPoint" />
            <Array as="points">
              <mxPoint x="360" y="481" />
              <mxPoint x="360" y="440" />
            </Array>
          </mxGeometry>
        </mxCell>
        <mxCell id="tf3GBWeRUYOul-Jmk8GR-12" value="" style="endArrow=classic;html=1;rounded=0;entryX=1;entryY=0.5;entryDx=0;entryDy=0;entryPerimeter=0;strokeColor=#808080;strokeWidth=2;" edge="1" parent="1" target="tf3GBWeRUYOul-Jmk8GR-11">
          <mxGeometry width="50" height="50" relative="1" as="geometry">
            <mxPoint x="900" y="630" as="sourcePoint" />
            <mxPoint x="590" y="530" as="targetPoint" />
            <Array as="points">
              <mxPoint x="900" y="570" />
            </Array>
          </mxGeometry>
        </mxCell>
        <mxCell id="tf3GBWeRUYOul-Jmk8GR-15" value="" style="endArrow=classic;html=1;rounded=0;strokeColor=#808080;strokeWidth=2;entryX=0;entryY=0.5;entryDx=0;entryDy=0;entryPerimeter=0;" edge="1" parent="1" target="tf3GBWeRUYOul-Jmk8GR-2">
          <mxGeometry width="50" height="50" relative="1" as="geometry">
            <mxPoint x="680" y="610" as="sourcePoint" />
            <mxPoint x="590" y="530" as="targetPoint" />
            <Array as="points">
              <mxPoint x="680" y="690" />
            </Array>
          </mxGeometry>
        </mxCell>
      </root>
    </mxGraphModel>
  </diagram>
</mxfile>
